<svg width="138" height="20" viewBox="0 0 138 20" fill="none" xmlns="http://www.w3.org/2000/svg">
<path d="M66.2968 4.82364C66.7543 4.82364 67.2799 4.87917 67.8733 4.99041C68.4729 5.0955 69.0514 5.31491 69.6077 5.64867C70.1703 5.98253 70.6376 6.48655 71.0086 7.16041C71.3796 7.83439 71.5649 8.73743 71.5649 9.86899V19.2553H69.3762V17.3257H69.2654C69.117 17.6348 68.869 17.966 68.5227 18.3184C68.1766 18.6708 67.7163 18.9708 67.1415 19.218C66.5664 19.4654 65.8638 19.5889 65.0352 19.5889C64.1326 19.5888 63.3135 19.4188 62.5778 19.0787C61.842 18.7325 61.2576 18.2349 60.8247 17.5856C60.392 16.9303 60.1753 16.1389 60.1753 15.2116C60.1753 14.3955 60.3365 13.734 60.658 13.227C60.9795 12.7138 61.4091 12.311 61.947 12.0203C62.4848 11.7298 63.0785 11.5141 63.7275 11.3719C64.383 11.2235 65.0417 11.1053 65.7033 11.0187C66.5688 10.9075 67.2706 10.8242 67.8086 10.7686C68.3525 10.7068 68.7482 10.6046 68.9956 10.4625C69.249 10.3203 69.3762 10.0732 69.3762 9.72085V9.6463C69.3762 8.73125 69.1255 8.02059 68.6248 7.51357C68.1301 7.00656 67.3792 6.75233 66.3714 6.75231C65.3264 6.75231 64.5066 6.98145 63.913 7.43902C63.3195 7.89652 62.9023 8.38533 62.6612 8.90465L60.5834 8.16202C60.9544 7.29646 61.4494 6.62242 62.0677 6.14016C62.6921 5.65174 63.3724 5.31157 64.1082 5.1199C64.8501 4.92208 65.5797 4.82366 66.2968 4.82364ZM110.626 12.6511C110.626 13.5786 110.83 14.4047 111.238 15.1282C111.646 15.8454 112.228 16.4111 112.982 16.8253C113.743 17.2333 114.651 17.4375 115.708 17.4375C116.766 17.4375 117.675 17.2334 118.436 16.8253C119.196 16.4111 119.777 15.8453 120.179 15.1282C120.587 14.4047 120.791 13.5786 120.791 12.6511V0.259968H123.092V12.8365C123.092 14.1351 122.785 15.295 122.173 16.3152C121.567 17.3292 120.711 18.1303 119.604 18.7177C118.497 19.2989 117.199 19.5889 115.708 19.5889C114.218 19.5888 112.92 19.2989 111.813 18.7177C110.706 18.1303 109.847 17.3292 109.235 16.3152C108.629 15.295 108.325 14.1351 108.325 12.8365V0.259968H110.626V12.6511ZM25.4965 4.82364C26.7825 4.82366 27.9076 5.12978 28.8722 5.74187C29.8429 6.35399 30.5974 7.21322 31.1354 8.31997C31.6795 9.42679 31.9516 10.7227 31.9516 12.2067C31.9515 13.6782 31.6795 14.9645 31.1354 16.0651C30.5974 17.1655 29.8429 18.0222 28.8722 18.6343C27.9077 19.2463 26.7824 19.5525 25.4965 19.5526C24.2105 19.5526 23.0818 19.2464 22.111 18.6343C21.1465 18.0222 20.392 17.1656 19.8478 16.0651C19.3099 14.9645 19.0405 13.6782 19.0405 12.2067C19.0405 10.7227 19.3099 9.42679 19.8478 8.31997C20.392 7.21321 21.1465 6.354 22.111 5.74187C23.0818 5.12971 24.2104 4.82364 25.4965 4.82364ZM81.5722 4.82364C82.5739 4.82364 83.4769 5.00887 84.2807 5.37987C85.0845 5.75086 85.7433 6.26998 86.2565 6.93772C86.7697 7.60552 87.0874 8.38507 87.211 9.27547H85.0224C84.8554 8.62625 84.4849 8.05071 83.9099 7.54987C83.3411 7.04287 82.574 6.78962 81.6094 6.78959C80.7562 6.78959 80.0079 7.01247 79.3649 7.45766C78.7281 7.89662 78.2304 8.51788 77.8718 9.32158C77.5193 10.1192 77.343 11.0563 77.343 12.1322C77.343 13.2328 77.5157 14.1913 77.862 15.0075C78.2144 15.8237 78.7094 16.4574 79.3462 16.9087C79.9893 17.3601 80.7438 17.5856 81.6094 17.5856C82.1782 17.5856 82.6948 17.4872 83.1585 17.2894C83.622 17.0916 84.0142 16.8067 84.3357 16.4359C84.6572 16.0649 84.8864 15.6191 85.0224 15.0997H87.211C87.0874 15.9407 86.7813 16.6988 86.2928 17.3727C85.8105 18.0404 85.1705 18.5722 84.373 18.9679C83.5816 19.3573 82.6604 19.5525 81.6094 19.5526C80.2739 19.5526 79.1238 19.2365 78.1592 18.6059C77.1946 17.9752 76.4527 17.1062 75.9333 15.9993C75.414 14.8927 75.1535 13.6286 75.1534 12.2067C75.1534 10.7598 75.4202 9.4827 75.9519 8.37588C76.4899 7.2629 77.2381 6.39385 78.1965 5.76933C79.161 5.13879 80.2862 4.82364 81.5722 4.82364ZM132.695 4.82364C134.104 4.82364 135.212 5.13245 136.015 5.75069C136.825 6.36902 137.401 7.18526 137.741 8.1993L135.774 8.75554C135.65 8.42799 135.468 8.11002 135.227 7.80101C134.992 7.48566 134.67 7.22516 134.262 7.02111C133.854 6.81717 133.331 6.71503 132.695 6.71503C131.823 6.71509 131.097 6.91662 130.516 7.31835C129.941 7.71407 129.653 8.21798 129.653 8.83009C129.653 9.37406 129.851 9.80382 130.246 10.1191C130.642 10.4345 131.26 10.6977 132.101 10.9079L134.216 11.4268C135.49 11.736 136.439 12.2096 137.063 12.8464C137.688 13.477 138 14.2898 138 15.2852C138 16.1014 137.766 16.8317 137.296 17.4748C136.832 18.1178 136.182 18.6244 135.347 18.9953C134.513 19.3662 133.542 19.5525 132.436 19.5526C130.983 19.5526 129.78 19.2366 128.828 18.6059C127.875 17.9752 127.272 17.0542 127.019 15.8424L129.096 15.3224C129.294 16.0892 129.668 16.6647 130.219 17.048C130.775 17.4314 131.502 17.6229 132.398 17.6229C133.419 17.6229 134.229 17.4063 134.828 16.9735C135.434 16.5345 135.737 16.0091 135.737 15.397C135.737 14.9023 135.564 14.4879 135.218 14.154C134.872 13.814 134.34 13.5607 133.623 13.3938L131.248 12.8365C129.943 12.5274 128.985 12.0484 128.373 11.3994C127.767 10.744 127.464 9.92488 127.464 8.94193C127.464 8.13814 127.689 7.42654 128.141 6.80823C128.598 6.18989 129.22 5.70486 130.006 5.3524C130.797 5.00006 131.693 4.82369 132.695 4.82364ZM8.38471 0C9.34304 0 10.2426 0.139715 11.0835 0.417911C11.9306 0.696162 12.695 1.10426 13.3751 1.64221C14.0551 2.17387 14.6236 2.82304 15.0811 3.58952C15.5387 4.35008 15.8546 5.2191 16.0278 6.19607H13.7273C13.5913 5.53461 13.3531 4.95359 13.0131 4.45282C12.6793 3.95203 12.271 3.53129 11.7888 3.19123C11.3127 2.84497 10.7838 2.58544 10.2025 2.41231C9.6213 2.23918 9.01541 2.15234 8.38471 2.15234C7.23464 2.15235 6.19287 2.44324 5.25921 3.02446C4.33183 3.60565 3.5924 4.46138 3.04212 5.59275C2.49798 6.7243 2.22592 8.11336 2.22592 9.75813C2.22597 11.4027 2.49803 12.7911 3.04212 13.9225C3.59243 15.054 4.33176 15.9106 5.25921 16.4918C6.1928 17.0729 7.23475 17.3629 8.38471 17.3629C9.01532 17.3629 9.62138 17.277 10.2025 17.104C10.7838 16.9308 11.3127 16.6739 11.7888 16.3339C12.271 15.9876 12.6793 15.5642 13.0131 15.0634C13.3532 14.5564 13.5913 13.9746 13.7273 13.3192H16.0278C15.8546 14.29 15.5387 15.159 15.0811 15.9258C14.6236 16.6923 14.0552 17.345 13.3751 17.8829C12.695 18.4146 11.9306 18.8191 11.0835 19.0974C10.2426 19.3756 9.34305 19.5153 8.38471 19.5153C6.76471 19.5153 5.32375 19.1197 4.06237 18.3283C2.80097 17.5368 1.80845 16.4109 1.085 14.9516C0.361669 13.4925 5.37027e-05 11.7613 0 9.75813C0 7.75479 0.361592 6.02291 1.085 4.56367C1.80838 3.10454 2.80115 1.97946 4.06237 1.18801C5.32376 0.396548 6.7647 1.12227e-05 8.38471 0ZM54.247 5.00905H57.2892V6.86414H54.247V15.1743C54.247 15.7924 54.3366 16.2562 54.5158 16.5654C54.7013 16.8683 54.9368 17.0724 55.2212 17.1775C55.5118 17.2765 55.8179 17.3257 56.1394 17.3257C56.3805 17.3257 56.5784 17.3141 56.7329 17.2894C56.8874 17.2585 57.011 17.2334 57.1038 17.2148L57.5491 19.1808C57.4008 19.2364 57.1939 19.2929 56.9282 19.3485C56.6623 19.4103 56.3248 19.4407 55.9167 19.4407C55.2985 19.4407 54.6924 19.3083 54.0989 19.0424C53.5115 18.7765 53.0228 18.3711 52.6333 17.827C52.2499 17.2828 52.0584 16.5963 52.0584 15.7678V6.86414H49.907V5.00905H52.0584V1.59611H54.247V5.00905ZM93.826 5.00905H96.8681V6.86414H93.826V15.1743C93.826 15.7925 93.9155 16.2562 94.0948 16.5654C94.2803 16.8684 94.5157 17.0724 94.8001 17.1775C95.0907 17.2764 95.3969 17.3257 95.7184 17.3257C95.9594 17.3257 96.1574 17.3141 96.3119 17.2894C96.4664 17.2585 96.59 17.2334 96.6827 17.2148L97.1281 19.1808C96.9797 19.2364 96.772 19.2929 96.5061 19.3485C96.2403 19.4103 95.9035 19.4407 95.4957 19.4407C94.8775 19.4407 94.2713 19.3082 93.6779 19.0424C93.0905 18.7766 92.6018 18.3711 92.2122 17.827C91.8289 17.2828 91.6374 16.5964 91.6374 15.7678V6.86414H89.485V5.00905H91.6374V1.59611H93.826V5.00905ZM42.0099 4.82364C42.9744 4.82366 43.8185 5.02144 44.5419 5.41715C45.2653 5.8067 45.8283 6.40009 46.2302 7.19769C46.6321 7.98907 46.8325 8.99079 46.8326 10.2025V19.2553H44.6439V10.3516C44.6439 9.23246 44.353 8.3598 43.7718 7.73528C43.1906 7.10482 42.393 6.7896 41.3791 6.78959C40.6804 6.78959 40.0557 6.94084 39.5054 7.2438C38.9613 7.54673 38.5317 7.98904 38.2163 8.57012C37.901 9.15136 37.7435 9.85662 37.7435 10.6852V19.2553H35.5539V5.00905H37.6689V7.23497H37.8543C38.1882 6.51152 38.6957 5.92974 39.3759 5.49073C40.056 5.04569 40.9342 4.82364 42.0099 4.82364ZM69.3762 12.0949C69.2835 12.2062 69.0794 12.3082 68.7641 12.401C68.4549 12.4875 68.096 12.5645 67.6879 12.6325C67.2862 12.6943 66.8939 12.7508 66.5107 12.8003C66.1337 12.8435 65.8274 12.8802 65.5925 12.9111C65.0236 12.9853 64.491 13.1061 63.9963 13.2731C63.5081 13.4339 63.1122 13.6783 62.8093 14.0059C62.5127 14.3274 62.364 14.7662 62.3639 15.3224C62.3639 16.083 62.6459 16.6585 63.2086 17.048C63.7774 17.4313 64.498 17.6229 65.3698 17.6229C66.2353 17.6229 66.9649 17.4528 67.5584 17.1128C68.1582 16.7727 68.6092 16.3332 68.9122 15.7953C69.2213 15.2574 69.3762 14.6917 69.3762 14.0981V12.0949ZM25.4965 6.78959C24.5197 6.78959 23.7158 7.04303 23.0852 7.54987C22.4545 8.05689 21.9873 8.72192 21.6843 9.54427C21.3813 10.3667 21.2301 11.2545 21.2301 12.2067C21.2301 13.1588 21.3814 14.0433 21.6843 14.8594C21.9873 15.6754 22.4546 16.3334 23.0852 16.8342C23.7159 17.335 24.5196 17.5856 25.4965 17.5856C26.4734 17.5856 27.2772 17.335 27.9078 16.8342C28.5384 16.3334 29.0058 15.6754 29.3087 14.8594C29.6117 14.0433 29.7629 13.1588 29.7629 12.2067C29.7629 11.2545 29.6117 10.3666 29.3087 9.54427C29.0057 8.72188 28.5385 8.05691 27.9078 7.54987C27.2772 7.04297 26.4733 6.78961 25.4965 6.78959Z" fill="white"/>
</svg>
